<svg width="84" height="46" viewBox="0 0 84 46" fill="none" xmlns="http://www.w3.org/2000/svg">
<path d="M8.54688 23.3125C7.41146 23.3125 6.36458 23.0208 5.40625 22.4375C4.45833 21.8542 3.69792 21.0781 3.125 20.1094C2.5625 19.1302 2.28125 18.0573 2.28125 16.8906V15.4219C2.28125 15.3073 2.33333 15.25 2.4375 15.25H6.03125C6.11458 15.25 6.15625 15.3073 6.15625 15.4219V16.8906C6.15625 17.5885 6.39062 18.1927 6.85938 18.7031C7.32812 19.2031 7.89062 19.4531 8.54688 19.4531C9.21354 19.4531 9.78125 19.1979 10.25 18.6875C10.7188 18.1667 10.9531 17.5677 10.9531 16.8906C10.9531 16.1094 10.4427 15.4271 9.42188 14.8438C9.25521 14.7396 9.03646 14.6146 8.76562 14.4688C8.50521 14.3125 8.19271 14.1354 7.82812 13.9375C7.46354 13.7396 7.10938 13.5469 6.76562 13.3594C6.42188 13.1615 6.08854 12.974 5.76562 12.7969C4.59896 12.1094 3.72917 11.25 3.15625 10.2188C2.59375 9.17708 2.3125 8.01042 2.3125 6.71875C2.3125 5.53125 2.60417 4.45833 3.1875 3.5C3.77083 2.55208 4.53125 1.80208 5.46875 1.25C6.41667 0.6875 7.44271 0.40625 8.54688 0.40625C9.68229 0.40625 10.724 0.6875 11.6719 1.25C12.6198 1.82292 13.375 2.58333 13.9375 3.53125C14.5104 4.47917 14.7969 5.54167 14.7969 6.71875V9.34375C14.7969 9.42708 14.7552 9.46875 14.6719 9.46875H11.0781C10.9948 9.46875 10.9531 9.42708 10.9531 9.34375L10.9219 6.71875C10.9219 5.96875 10.6875 5.35938 10.2188 4.89062C9.75 4.42188 9.19271 4.1875 8.54688 4.1875C7.89062 4.1875 7.32812 4.4375 6.85938 4.9375C6.39062 5.4375 6.15625 6.03125 6.15625 6.71875C6.15625 7.41667 6.30208 8 6.59375 8.46875C6.89583 8.9375 7.44271 9.38542 8.23438 9.8125C8.31771 9.85417 8.51042 9.95833 8.8125 10.125C9.11458 10.2917 9.44792 10.4792 9.8125 10.6875C10.1875 10.8854 10.526 11.0677 10.8281 11.2344C11.1302 11.3906 11.3125 11.4844 11.375 11.5156C12.4375 12.1094 13.276 12.8385 13.8906 13.7031C14.5156 14.5677 14.8281 15.6302 14.8281 16.8906C14.8281 18.1094 14.5469 19.2031 13.9844 20.1719C13.4115 21.1406 12.651 21.9062 11.7031 22.4688C10.7552 23.0312 9.70312 23.3125 8.54688 23.3125ZM23.875 23H20.2656C20.1719 23 20.125 22.9479 20.125 22.8438V4.59375H15.9688C15.8646 4.59375 15.8125 4.54167 15.8125 4.4375L15.8438 0.859375C15.8438 0.776042 15.8854 0.734375 15.9688 0.734375H28.125C28.2396 0.734375 28.2969 0.776042 28.2969 0.859375V4.4375C28.2969 4.54167 28.2552 4.59375 28.1719 4.59375H23.9688L24 22.8438C24 22.9479 23.9583 23 23.875 23ZM40.3281 23H29.9844C29.901 23 29.8594 22.9479 29.8594 22.8438L29.8906 0.859375C29.8906 0.776042 29.9323 0.734375 30.0156 0.734375H40.2969C40.3802 0.734375 40.4219 0.786458 40.4219 0.890625V4.46875C40.4219 4.55208 40.3802 4.59375 40.2969 4.59375H33.7344V9.59375H40.2969C40.3802 9.59375 40.4219 9.63542 40.4219 9.71875L40.4531 13.3438C40.4531 13.4271 40.4115 13.4688 40.3281 13.4688H33.7344V19.0625H40.3281C40.4115 19.0625 40.4531 19.1146 40.4531 19.2188V22.875C40.4531 22.9583 40.4115 23 40.3281 23ZM53.7656 23H43.4219C43.3385 23 43.2969 22.9479 43.2969 22.8438L43.3281 0.859375C43.3281 0.776042 43.3698 0.734375 43.4531 0.734375H53.7344C53.8177 0.734375 53.8594 0.786458 53.8594 0.890625V4.46875C53.8594 4.55208 53.8177 4.59375 53.7344 4.59375H47.1719V9.59375H53.7344C53.8177 9.59375 53.8594 9.63542 53.8594 9.71875L53.8906 13.3438C53.8906 13.4271 53.849 13.4688 53.7656 13.4688H47.1719V19.0625H53.7656C53.849 19.0625 53.8906 19.1146 53.8906 19.2188V22.875C53.8906 22.9583 53.849 23 53.7656 23ZM67.8125 23H55.875C55.7708 23 55.7188 22.9479 55.7188 22.8438L55.75 19.3594L63.5938 4.375H56.1719C56.0781 4.375 56.0312 4.33333 56.0312 4.25V0.890625C56.0312 0.786458 56.0781 0.734375 56.1719 0.734375H67.75C67.8542 0.734375 67.9062 0.786458 67.9062 0.890625V4.34375L60.1094 19.25H67.8125C67.8958 19.25 67.9375 19.3073 67.9375 19.4219L67.9688 22.8438C67.9688 22.9479 67.9167 23 67.8125 23ZM80.4531 23H70.1094C70.026 23 69.9844 22.9479 69.9844 22.8438L70.0156 0.859375C70.0156 0.776042 70.0573 0.734375 70.1406 0.734375H80.4219C80.5052 0.734375 80.5469 0.786458 80.5469 0.890625V4.46875C80.5469 4.55208 80.5052 4.59375 80.4219 4.59375H73.8594V9.59375H80.4219C80.5052 9.59375 80.5469 9.63542 80.5469 9.71875L80.5781 13.3438C80.5781 13.4271 80.5365 13.4688 80.4531 13.4688H73.8594V19.0625H80.4531C80.5365 19.0625 80.5781 19.1146 80.5781 19.2188V22.875C80.5781 22.9583 80.5365 23 80.4531 23ZM6.71875 45.3125C5.58333 45.3125 4.53646 45.0208 3.57812 44.4375C2.63021 43.8542 1.86979 43.0781 1.29688 42.1094C0.734375 41.1302 0.453125 40.0573 0.453125 38.8906V37.4219C0.453125 37.3073 0.505208 37.25 0.609375 37.25H4.20312C4.28646 37.25 4.32812 37.3073 4.32812 37.4219V38.8906C4.32812 39.5885 4.5625 40.1927 5.03125 40.7031C5.5 41.2031 6.0625 41.4531 6.71875 41.4531C7.38542 41.4531 7.95312 41.1979 8.42188 40.6875C8.89062 40.1667 9.125 39.5677 9.125 38.8906C9.125 38.1094 8.61458 37.4271 7.59375 36.8438C7.42708 36.7396 7.20833 36.6146 6.9375 36.4688C6.67708 36.3125 6.36458 36.1354 6 35.9375C5.63542 35.7396 5.28125 35.5469 4.9375 35.3594C4.59375 35.1615 4.26042 34.974 3.9375 34.7969C2.77083 34.1094 1.90104 33.25 1.32812 32.2188C0.765625 31.1771 0.484375 30.0104 0.484375 28.7188C0.484375 27.5312 0.776042 26.4583 1.35938 25.5C1.94271 24.5521 2.70312 23.8021 3.64062 23.25C4.58854 22.6875 5.61458 22.4062 6.71875 22.4062C7.85417 22.4062 8.89583 22.6875 9.84375 23.25C10.7917 23.8229 11.5469 24.5833 12.1094 25.5312C12.6823 26.4792 12.9688 27.5417 12.9688 28.7188V31.3438C12.9688 31.4271 12.9271 31.4688 12.8438 31.4688H9.25C9.16667 31.4688 9.125 31.4271 9.125 31.3438L9.09375 28.7188C9.09375 27.9688 8.85938 27.3594 8.39062 26.8906C7.92188 26.4219 7.36458 26.1875 6.71875 26.1875C6.0625 26.1875 5.5 26.4375 5.03125 26.9375C4.5625 27.4375 4.32812 28.0312 4.32812 28.7188C4.32812 29.4167 4.47396 30 4.76562 30.4688C5.06771 30.9375 5.61458 31.3854 6.40625 31.8125C6.48958 31.8542 6.68229 31.9583 6.98438 32.125C7.28646 32.2917 7.61979 32.4792 7.98438 32.6875C8.35938 32.8854 8.69792 33.0677 9 33.2344C9.30208 33.3906 9.48438 33.4844 9.54688 33.5156C10.6094 34.1094 11.4479 34.8385 12.0625 35.7031C12.6875 36.5677 13 37.6302 13 38.8906C13 40.1094 12.7188 41.2031 12.1562 42.1719C11.5833 43.1406 10.8229 43.9062 9.875 44.4688C8.92708 45.0312 7.875 45.3125 6.71875 45.3125ZM21.1094 45.3125C19.9844 45.3125 18.9427 45.0208 17.9844 44.4375C17.026 43.8542 16.2604 43.0729 15.6875 42.0938C15.125 41.1042 14.8438 40.026 14.8438 38.8594L14.9062 22.8594C14.9062 22.776 14.9479 22.7344 15.0312 22.7344H18.625C18.7083 22.7344 18.75 22.776 18.75 22.8594V38.8594C18.75 39.5781 18.9792 40.1927 19.4375 40.7031C19.8958 41.2031 20.4531 41.4531 21.1094 41.4531C21.7969 41.4531 22.3698 41.2031 22.8281 40.7031C23.2865 40.1927 23.5156 39.5781 23.5156 38.8594V22.8594C23.5156 22.776 23.5573 22.7344 23.6406 22.7344H27.2344C27.3177 22.7344 27.3594 22.776 27.3594 22.8594L27.4219 38.8594C27.4219 40.0365 27.1406 41.1198 26.5781 42.1094C26.0052 43.0885 25.2448 43.8698 24.2969 44.4531C23.349 45.026 22.2865 45.3125 21.1094 45.3125ZM33.6875 45H30.0938C29.9896 45 29.9375 44.9479 29.9375 44.8438L30 22.8594C30 22.776 30.0417 22.7344 30.125 22.7344H36.2812C38.2396 22.7344 39.7865 23.3333 40.9219 24.5312C42.0677 25.7188 42.6406 27.3385 42.6406 29.3906C42.6406 30.8906 42.3438 32.1979 41.75 33.3125C41.1458 34.4167 40.3646 35.2708 39.4062 35.875C38.4479 36.4792 37.4062 36.7812 36.2812 36.7812H33.8438V44.8438C33.8438 44.9479 33.7917 45 33.6875 45ZM36.2812 26.5312L33.8438 26.5625V32.9062H36.2812C36.9583 32.9062 37.5469 32.5833 38.0469 31.9375C38.5469 31.2812 38.7969 30.4323 38.7969 29.3906C38.7969 28.5573 38.5729 27.875 38.125 27.3438C37.6771 26.8021 37.0625 26.5312 36.2812 26.5312ZM48.5625 45H44.9688C44.8646 45 44.8125 44.9479 44.8125 44.8438L44.875 22.8594C44.875 22.776 44.9167 22.7344 45 22.7344H51.1562C53.1146 22.7344 54.6615 23.3333 55.7969 24.5312C56.9427 25.7188 57.5156 27.3385 57.5156 29.3906C57.5156 30.8906 57.2188 32.1979 56.625 33.3125C56.0208 34.4167 55.2396 35.2708 54.2812 35.875C53.3229 36.4792 52.2812 36.7812 51.1562 36.7812H48.7188V44.8438C48.7188 44.9479 48.6667 45 48.5625 45ZM51.1562 26.5312L48.7188 26.5625V32.9062H51.1562C51.8333 32.9062 52.4219 32.5833 52.9219 31.9375C53.4219 31.2812 53.6719 30.4323 53.6719 29.3906C53.6719 28.5573 53.4479 27.875 53 27.3438C52.5521 26.8021 51.9375 26.5312 51.1562 26.5312ZM70.1562 45H59.8125C59.7292 45 59.6875 44.9479 59.6875 44.8438L59.7188 22.8906C59.7188 22.7865 59.7708 22.7344 59.875 22.7344H63.4375C63.5417 22.7344 63.5938 22.7865 63.5938 22.8906L63.5625 41.0625H70.1562C70.2604 41.0625 70.3125 41.1146 70.3125 41.2188V44.8438C70.3125 44.9479 70.2604 45 70.1562 45ZM79.0781 45H75.4062C75.3333 45 75.2969 44.9583 75.2969 44.875L75.3281 35.7812L71.0469 22.8594C71.026 22.776 71.0573 22.7344 71.1406 22.7344H74.7031C74.8073 22.7344 74.8698 22.776 74.8906 22.8594L77.25 31.4688L79.6562 22.8594C79.6771 22.776 79.7292 22.7344 79.8125 22.7344H83.4062C83.4896 22.7344 83.5208 22.776 83.5 22.8594L79.1719 35.6562L79.2031 44.875C79.2031 44.9583 79.1615 45 79.0781 45Z" fill="black"/>
</svg>
